<?xml version="1.0" standalone="no"?>
<!DOCTYPE svg PUBLIC "-//W3C//DTD SVG 20010904//EN"
 "http://www.w3.org/TR/2001/REC-SVG-20010904/DTD/svg10.dtd">
<svg version="1.0" xmlns="http://www.w3.org/2000/svg"
 width="225.000000pt" height="225.000000pt" viewBox="0 0 225.000000 225.000000"
 preserveAspectRatio="xMidYMid meet">

<g transform="translate(0.000000,225.000000) scale(0.100000,-0.100000)"
fill="#000000" stroke="none">
<path d="M0 1125 l0 -1125 1125 0 1125 0 0 1125 0 1125 -1125 0 -1125 0 0
-1125z m1277 703 c29 -32 36 -63 22 -90 -7 -13 -41 -54 -76 -93 l-64 -70 36
-7 c20 -4 50 -15 68 -24 36 -18 262 -195 290 -226 37 -43 13 -121 -42 -133
-39 -8 -55 1 -191 111 -64 51 -128 98 -143 103 -46 18 -133 13 -175 -8 -38
-20 -286 -282 -311 -330 -19 -34 -18 -110 2 -147 25 -48 318 -331 359 -349 47
-19 99 -19 143 0 19 7 79 57 133 110 88 84 103 95 135 95 43 0 77 -37 77 -84
0 -26 -17 -48 -112 -142 -135 -133 -183 -157 -310 -157 -69 -1 -85 3 -150 36
-62 31 -98 61 -238 201 -180 181 -213 229 -225 334 -7 67 14 159 49 212 23 35
479 527 581 628 62 60 105 70 142 30z m449 -791 c13 -15 24 -37 24 -48 0 -28
-26 -75 -45 -83 -9 -3 -169 -6 -356 -6 l-340 0 -24 25 c-15 14 -25 36 -25 53
0 35 32 79 63 85 12 3 170 4 350 3 l329 -1 24 -28z"/>
</g>
</svg>
